{"accessors":[{"bufferView":0,"byteOffset":0,"componentType":5126,"count":36,"max":[0.5,0.5,0.5],"min":[-0.5,-0.5,-0.5],"normalized":false,"type":"VEC3"},{"bufferView":1,"byteOffset":0,"componentType":5126,"count":36,"max":[0,0,0.000076,-1],"min":[-1,-1,-1,-1],"normalized":false,"type":"VEC4"},{"bufferView":2,"byteOffset":0,"componentType":5126,"count":36,"max":[1,1,1],"min":[-1,-1,-1],"normalized":false,"type":"VEC3"},{"bufferView":3,"byteOffset":0,"componentType":5126,"count":36,"max":[1,1],"min":[0,0],"normalized":false,"type":"VEC2"},{"bufferView":4,"byteOffset":0,"componentType":5125,"count":36,"max":[35],"min":[0],"normalized":false,"type":"SCALAR"},{"bufferView":5,"byteOffset":0,"componentType":5126,"count":16384,"max":[24.000006,0.015727,24.000006],"min":[-24.000006,-0.058175,-24.000006],"normalized":false,"type":"VEC3"},{"bufferView":6,"byteOffset":0,"componentType":5126,"count":16384,"max":[0.000708,0.049039,1,1],"min":[-0.00074,-0.049608,0.998769,1],"normalized":false,"type":"VEC4"},{"bufferView":7,"byteOffset":0,"componentType":5126,"count":16384,"max":[0.052476,1,0.049613],"min":[-0.054112,0.998528,-0.049058],"normalized":false,"type":"VEC3"},{"bufferView":8,"byteOffset":0,"componentType":5126,"count":16384,"max":[12.500002,12.500002],"min":[-11.500001,-11.500002],"normalized":false,"type":"VEC2"},{"bufferView":9,"byteOffset":0,"componentType":5125,"count":24576,"max":[16383],"min":[0],"normalized":false,"type":"SCALAR"},{"bufferView":10,"byteOffset":0,"componentType":5126,"count":8011,"max":[1,0.177176,3],"min":[-1,-1.960823,-27.000004],"normalized":false,"type":"VEC3"},{"bufferView":11,"byteOffset":0,"componentType":5126,"count":8011,"max":[0.025637,0.241409,1,1],"min":[-0.025947,-0.241852,0.970291,1],"normalized":false,"type":"VEC4"},{"bufferView":12,"byteOffset":0,"componentType":5126,"count":8011,"max":[1,0.999956,0.238811],"min":[-1,0,-0.233243],"normalized":false,"type":"VEC3"},{"bufferView":13,"byteOffset":0,"componentType":5126,"count":8011,"max":[2,2],"min":[-1,-1],"normalized":false,"type":"VEC2"},{"bufferView":14,"byteOffset":0,"componentType":5125,"count":23040,"max":[8009],"min":[0],"normalized":false,"type":"SCALAR"},{"bufferView":15,"byteOffset":0,"componentType":5126,"count":8603,"max":[1,1.435459,1],"min":[-1,0,-27.000002],"normalized":false,"type":"VEC3"},{"bufferView":16,"byteOffset":0,"componentType":5126,"count":8603,"max":[0.574994,0.924861,1,1],"min":[-0.574858,-0.961686,0.262176,1],"normalized":false,"type":"VEC4"},{"bufferView":17,"byteOffset":0,"componentType":5126,"count":8603,"max":[0.938067,0.999899,0.964035],"min":[-0.999776,-0.023138,-0.920029],"normalized":false,"type":"VEC3"},{"bufferView":18,"byteOffset":0,"componentType":5126,"count":8603,"max":[1,1],"min":[0,0],"normalized":false,"type":"VEC2"},{"bufferView":19,"byteOffset":0,"componentType":5125,"count":12096,"max":[8063],"min":[0],"normalized":false,"type":"SCALAR"},{"bufferView":20,"byteOffset":0,"componentType":5126,"count":8629,"max":[1,1.091274,1],"min":[-1,0,-27.000002],"normalized":false,"type":"VEC3"},{"bufferView":21,"byteOffset":0,"componentType":5126,"count":8629,"max":[0.631851,0.91512,1,1],"min":[-0.624497,-0.98913,0.117877,1],"normalized":false,"type":"VEC4"},{"bufferView":22,"byteOffset":0,"componentType":5126,"count":8629,"max":[0.971812,0.999915,0.991959],"min":[-0.960886,0.113157,-0.914248],"normalized":false,"type":"VEC3"},{"bufferView":23,"byteOffset":0,"componentType":5126,"count":8629,"max":[1,1],"min":[0,0],"normalized":false,"type":"VEC2"},{"bufferView":24,"byteOffset":0,"componentType":5125,"count":12096,"max":[8063],"min":[0],"normalized":false,"type":"SCALAR"},{"bufferView":25,"byteOffset":0,"componentType":5126,"count":4,"max":[8,8,0],"min":[-8,-8,0],"normalized":false,"type":"VEC3"},{"bufferView":26,"byteOffset":0,"componentType":5126,"count":4,"max":[1,0,-0.000015,1],"min":[1,0,-0.000015,1],"normalized":false,"type":"VEC4"},{"bufferView":27,"byteOffset":0,"componentType":5126,"count":4,"max":[-0.000015,-0.000015,1],"min":[-0.000015,-0.000015,1],"normalized":false,"type":"VEC3"},{"bufferView":28,"byteOffset":0,"componentType":5126,"count":4,"max":[1,1],"min":[0,0],"normalized":false,"type":"VEC2"},{"bufferView":29,"byteOffset":0,"componentType":5125,"count":6,"max":[3],"min":[0],"normalized":false,"type":"SCALAR"},{"bufferView":30,"byteOffset":0,"componentType":5126,"count":4,"max":[8,8,0],"min":[-8,-8,0],"normalized":false,"type":"VEC3"},{"bufferView":31,"byteOffset":0,"componentType":5126,"count":4,"max":[1,0,-0.000015,1],"min":[1,0,-0.000015,1],"normalized":false,"type":"VEC4"},{"bufferView":32,"byteOffset":0,"componentType":5126,"count":4,"max":[-0.000015,-0.000015,1],"min":[-0.000015,-0.000015,1],"normalized":false,"type":"VEC3"},{"bufferView":33,"byteOffset":0,"componentType":5126,"count":4,"max":[1,1],"min":[0,0],"normalized":false,"type":"VEC2"},{"bufferView":34,"byteOffset":0,"componentType":5125,"count":6,"max":[3],"min":[0],"normalized":false,"type":"SCALAR"}],"asset":{"generator":"Godot Engine v4.1.3.stable.official@f06b6836a9ecfd0e6ec96d8bcf0fe9c9bc10dcbf","version":"2.0"},"bufferViews":[{"buffer":0,"byteLength":432,"byteOffset":0},{"buffer":0,"byteLength":576,"byteOffset":432},{"buffer":0,"byteLength":432,"byteOffset":1008},{"buffer":0,"byteLength":288,"byteOffset":1440},{"buffer":0,"byteLength":144,"byteOffset":1728},{"buffer":0,"byteLength":196608,"byteOffset":1872},{"buffer":0,"byteLength":262144,"byteOffset":198480},{"buffer":0,"byteLength":196608,"byteOffset":460624},{"buffer":0,"byteLength":131072,"byteOffset":657232},{"buffer":0,"byteLength":98304,"byteOffset":788304},{"buffer":0,"byteLength":96132,"byteOffset":886608},{"buffer":0,"byteLength":128176,"byteOffset":982740},{"buffer":0,"byteLength":96132,"byteOffset":1110916},{"buffer":0,"byteLength":64088,"byteOffset":1207048},{"buffer":0,"byteLength":92160,"byteOffset":1271136},{"buffer":0,"byteLength":103236,"byteOffset":1363296},{"buffer":0,"byteLength":137648,"byteOffset":1466532},{"buffer":0,"byteLength":103236,"byteOffset":1604180},{"buffer":0,"byteLength":68824,"byteOffset":1707416},{"buffer":0,"byteLength":48384,"byteOffset":1776240},{"buffer":0,"byteLength":103548,"byteOffset":1824624},{"buffer":0,"byteLength":138064,"byteOffset":1928172},{"buffer":0,"byteLength":103548,"byteOffset":2066236},{"buffer":0,"byteLength":69032,"byteOffset":2169784},{"buffer":0,"byteLength":48384,"byteOffset":2238816},{"buffer":0,"byteLength":48,"byteOffset":2287200},{"buffer":0,"byteLength":64,"byteOffset":2287248},{"buffer":0,"byteLength":48,"byteOffset":2287312},{"buffer":0,"byteLength":32,"byteOffset":2287360},{"buffer":0,"byteLength":24,"byteOffset":2287392},{"buffer":0,"byteLength":48,"byteOffset":2287416},{"buffer":0,"byteLength":64,"byteOffset":2287464},{"buffer":0,"byteLength":48,"byteOffset":2287528},{"buffer":0,"byteLength":32,"byteOffset":2287576},{"buffer":0,"byteLength":24,"byteOffset":2287608}],"buffers":[{"byteLength":2287632,"uri":"plain0.bin"}],"cameras":[{"perspective":{"yfov":1.57079637050629,"zfar":32,"znear":0.00999999977648258},"type":"perspective"}],"extensionsUsed":["KHR_materials_unlit"],"images":[{"uri":"textures%2Fgrass_albedo000.png"},{"uri":"textures%2Fpath_albedo000.png"},{"uri":"textures%2FMaterial_albedo000.png"},{"uri":"textures%2FMaterial_001_albedo.png"}],"materials":[{"extensions":{},"pbrMetallicRoughness":{"baseColorFactor":[0.99999988079071,0.99999988079071,0.99999988079071,1],"metallicFactor":0,"roughnessFactor":1}},{"doubleSided":true,"extensions":{"KHR_materials_unlit":{}},"name":"grass2","pbrMetallicRoughness":{"baseColorFactor":[0.99999988079071,0.99999988079071,0.99999988079071,1],"baseColorTexture":{"index":0},"metallicFactor":0,"roughnessFactor":1}},{"doubleSided":true,"extensions":{"KHR_materials_unlit":{}},"name":"path2","pbrMetallicRoughness":{"baseColorFactor":[0.99999988079071,0.99999988079071,0.99999988079071,1],"baseColorTexture":{"index":1},"metallicFactor":0,"roughnessFactor":1}},{"doubleSided":true,"extensions":{"KHR_materials_unlit":{}},"name":"Material","pbrMetallicRoughness":{"baseColorFactor":[0.99999988079071,0.99999988079071,0.99999988079071,1],"baseColorTexture":{"index":2},"metallicFactor":0,"roughnessFactor":1}},{"alphaCutoff":0.5,"alphaMode":"MASK","extensions":{"KHR_materials_unlit":{}},"name":"Material_001","pbrMetallicRoughness":{"baseColorFactor":[0.99999988079071,0.99999988079071,0.99999988079071,1],"baseColorTexture":{"index":3},"metallicFactor":0,"roughnessFactor":1}}],"meshes":[{"extras":{"targetNames":[]},"primitives":[{"attributes":{"NORMAL":2,"POSITION":0,"TANGENT":1,"TEXCOORD_0":3},"indices":4,"material":0,"mode":4}]},{"extras":{"targetNames":[]},"primitives":[{"attributes":{"NORMAL":7,"POSITION":5,"TANGENT":6,"TEXCOORD_0":8},"indices":9,"material":1,"mode":4}]},{"extras":{"targetNames":[]},"primitives":[{"attributes":{"NORMAL":12,"POSITION":10,"TANGENT":11,"TEXCOORD_0":13},"indices":14,"material":2,"mode":4}]},{"extras":{"targetNames":[]},"primitives":[{"attributes":{"NORMAL":17,"POSITION":15,"TANGENT":16,"TEXCOORD_0":18},"indices":19,"material":3,"mode":4}]},{"extras":{"targetNames":[]},"primitives":[{"attributes":{"NORMAL":22,"POSITION":20,"TANGENT":21,"TEXCOORD_0":23},"indices":24,"material":3,"mode":4}]},{"extras":{"targetNames":[]},"primitives":[{"attributes":{"NORMAL":27,"POSITION":25,"TANGENT":26,"TEXCOORD_0":28},"indices":29,"material":4,"mode":4}]},{"extras":{"targetNames":[]},"primitives":[{"attributes":{"NORMAL":32,"POSITION":30,"TANGENT":31,"TEXCOORD_0":33},"indices":34,"material":4,"mode":4}]}],"nodes":[{"children":[1,2,7,11],"extensions":{},"name":"plain"},{"extensions":{},"name":"_TextureRect"},{"children":[3,4,5,6],"extensions":{},"name":"VBoxContainer"},{"extensions":{},"name":"exploration"},{"extensions":{},"name":"return"},{"extensions":{},"name":"traveling"},{"extensions":{},"name":"player_dice"},{"children":[8,9,10],"extensions":{},"name":"assets"},{"extensions":{},"mesh":0,"name":"CSGBox3D2","translation":[0,-0.60000002384186,-6]},{"camera":0,"extensions":{},"name":"Camera3D","translation":[0,0.629999995231628,0]},{"extensions":{},"name":"z"},{"children":[12,13,14,15,16,18],"extensions":{},"name":"forest"},{"extensions":{},"mesh":1,"name":"grass"},{"extensions":{},"mesh":2,"name":"path","translation":[0,-0.10000000149012,0]},{"extensions":{},"mesh":3,"name":"border_1","rotation":[0,0,-0.21643944084644,0.976296067237854],"translation":[-2,-0.10000000149012,3]},{"extensions":{},"mesh":4,"name":"border_2","rotation":[0,0,0.216439440846443,0.976296067237854],"translation":[2,-0.10000000149012,3]},{"children":[17],"extensions":{},"name":"tree_frame2","rotation":[1,-0,-0,-0.00000004371134],"scale":[-0.2660000026226,-0.33500000834465,-0.44999998807907],"translation":[0.109999999403954,1.73000001907349,-2.97000002861023]},{"extensions":{},"mesh":5,"name":"tree_frame_mesh"},{"children":[19],"extensions":{},"name":"tree_frame","scale":[1.30499994754791,0.824999988079071,1.30499994754791],"translation":[0,3.96499991416931,-9.79500007629395]},{"extensions":{},"mesh":6,"name":"tree_frame_mesh2"}],"samplers":[{"magFilter":9729,"minFilter":9987,"wrapS":10497,"wrapT":10497}],"scene":0,"scenes":[{"nodes":[0]}],"textures":[{"sampler":0,"source":0},{"sampler":0,"source":1},{"sampler":0,"source":2},{"sampler":0,"source":3}]}