{"accessors":[{"bufferView":0,"byteOffset":0,"componentType":5126,"count":4,"max":[4,4,-4.999999],"min":[-4,-4,-5.000001],"normalized":false,"type":"VEC3"},{"bufferView":1,"byteOffset":0,"componentType":5126,"count":4,"max":[-1,0,-0.000046,-1],"min":[-1,0,-0.000046,-1],"normalized":false,"type":"VEC4"},{"bufferView":2,"byteOffset":0,"componentType":5126,"count":4,"max":[-0.000015,-0.000015,1],"min":[-0.000015,-0.000015,1],"normalized":false,"type":"VEC3"},{"bufferView":3,"byteOffset":0,"componentType":5126,"count":4,"max":[1,1],"min":[0,0],"normalized":false,"type":"VEC2"},{"bufferView":4,"byteOffset":0,"componentType":5125,"count":6,"max":[3],"min":[0],"normalized":false,"type":"SCALAR"},{"bufferView":5,"byteOffset":0,"componentType":5126,"count":38,"max":[1.833333,1.833333,-5],"min":[-1.833333,-1.833333,-5.000001],"normalized":false,"type":"VEC3"},{"bufferView":6,"byteOffset":0,"componentType":5126,"count":38,"max":[-0.901577,0.405821,0.000061,-1],"min":[-0.999975,-0.432618,-0.000101,-1],"normalized":false,"type":"VEC4"},{"bufferView":7,"byteOffset":0,"componentType":5126,"count":38,"max":[-0.000015,-0.000015,1],"min":[-0.000015,-0.000015,1],"normalized":false,"type":"VEC3"},{"bufferView":8,"byteOffset":0,"componentType":5126,"count":38,"max":[1,1],"min":[0,0],"normalized":false,"type":"VEC2"},{"bufferView":9,"byteOffset":0,"componentType":5125,"count":144,"max":[37],"min":[0],"normalized":false,"type":"SCALAR"},{"bufferView":10,"byteOffset":0,"componentType":5126,"count":38,"max":[0.916667,0.916667,-2],"min":[-0.916667,-0.916667,-2.000001],"normalized":false,"type":"VEC3"},{"bufferView":11,"byteOffset":0,"componentType":5126,"count":38,"max":[0.999976,0.405815,0.000088,1],"min":[0.901538,-0.4327,-0.000055,1],"normalized":false,"type":"VEC4"},{"bufferView":12,"byteOffset":0,"componentType":5126,"count":38,"max":[-0.000015,-0.000015,1],"min":[-0.000015,-0.000015,1],"normalized":false,"type":"VEC3"},{"bufferView":13,"byteOffset":0,"componentType":5126,"count":38,"max":[1,1],"min":[0,0],"normalized":false,"type":"VEC2"},{"bufferView":14,"byteOffset":0,"componentType":5125,"count":144,"max":[37],"min":[0],"normalized":false,"type":"SCALAR"},{"bufferView":15,"byteOffset":0,"componentType":5126,"count":36,"max":[0.5,0.5,0.5],"min":[-0.5,-0.5,-0.5],"normalized":false,"type":"VEC3"},{"bufferView":16,"byteOffset":0,"componentType":5126,"count":36,"max":[0,0,0.000076,-1],"min":[-1,-1,-1,-1],"normalized":false,"type":"VEC4"},{"bufferView":17,"byteOffset":0,"componentType":5126,"count":36,"max":[1,1,1],"min":[-1,-1,-1],"normalized":false,"type":"VEC3"},{"bufferView":18,"byteOffset":0,"componentType":5126,"count":36,"max":[1,1],"min":[0,0],"normalized":false,"type":"VEC2"},{"bufferView":19,"byteOffset":0,"componentType":5125,"count":36,"max":[35],"min":[0],"normalized":false,"type":"SCALAR"},{"bufferView":20,"byteOffset":0,"componentType":5126,"count":36,"max":[0.5,0.5,0.5],"min":[-0.5,-0.5,-0.5],"normalized":false,"type":"VEC3"},{"bufferView":21,"byteOffset":0,"componentType":5126,"count":36,"max":[0,0,0.000076,-1],"min":[-1,-1,-1,-1],"normalized":false,"type":"VEC4"},{"bufferView":22,"byteOffset":0,"componentType":5126,"count":36,"max":[1,1,1],"min":[-1,-1,-1],"normalized":false,"type":"VEC3"},{"bufferView":23,"byteOffset":0,"componentType":5126,"count":36,"max":[1,1],"min":[0,0],"normalized":false,"type":"VEC2"},{"bufferView":24,"byteOffset":0,"componentType":5125,"count":36,"max":[35],"min":[0],"normalized":false,"type":"SCALAR"},{"bufferView":25,"byteOffset":0,"componentType":5126,"count":36,"max":[0.5,0.5,0.5],"min":[-0.5,-0.5,-0.5],"normalized":false,"type":"VEC3"},{"bufferView":26,"byteOffset":0,"componentType":5126,"count":36,"max":[0,0,0.000076,-1],"min":[-1,-1,-1,-1],"normalized":false,"type":"VEC4"},{"bufferView":27,"byteOffset":0,"componentType":5126,"count":36,"max":[1,1,1],"min":[-1,-1,-1],"normalized":false,"type":"VEC3"},{"bufferView":28,"byteOffset":0,"componentType":5126,"count":36,"max":[1,1],"min":[0,0],"normalized":false,"type":"VEC2"},{"bufferView":29,"byteOffset":0,"componentType":5125,"count":36,"max":[35],"min":[0],"normalized":false,"type":"SCALAR"},{"bufferView":30,"byteOffset":0,"componentType":5126,"count":36,"max":[0.5,0.5,0.5],"min":[-0.5,-0.5,-0.5],"normalized":false,"type":"VEC3"},{"bufferView":31,"byteOffset":0,"componentType":5126,"count":36,"max":[0,0,0.000076,-1],"min":[-1,-1,-1,-1],"normalized":false,"type":"VEC4"},{"bufferView":32,"byteOffset":0,"componentType":5126,"count":36,"max":[1,1,1],"min":[-1,-1,-1],"normalized":false,"type":"VEC3"},{"bufferView":33,"byteOffset":0,"componentType":5126,"count":36,"max":[1,1],"min":[0,0],"normalized":false,"type":"VEC2"},{"bufferView":34,"byteOffset":0,"componentType":5125,"count":36,"max":[35],"min":[0],"normalized":false,"type":"SCALAR"},{"bufferView":35,"byteOffset":0,"componentType":5126,"count":36,"max":[0.5,0.5,0.5],"min":[-0.5,-0.5,-0.5],"normalized":false,"type":"VEC3"},{"bufferView":36,"byteOffset":0,"componentType":5126,"count":36,"max":[0,0,0.000076,-1],"min":[-1,-1,-1,-1],"normalized":false,"type":"VEC4"},{"bufferView":37,"byteOffset":0,"componentType":5126,"count":36,"max":[1,1,1],"min":[-1,-1,-1],"normalized":false,"type":"VEC3"},{"bufferView":38,"byteOffset":0,"componentType":5126,"count":36,"max":[1,1],"min":[0,0],"normalized":false,"type":"VEC2"},{"bufferView":39,"byteOffset":0,"componentType":5125,"count":36,"max":[35],"min":[0],"normalized":false,"type":"SCALAR"},{"bufferView":40,"byteOffset":0,"componentType":5126,"count":36,"max":[0.5,0.5,0.5],"min":[-0.5,-0.5,-0.5],"normalized":false,"type":"VEC3"},{"bufferView":41,"byteOffset":0,"componentType":5126,"count":36,"max":[0,0,0.000076,-1],"min":[-1,-1,-1,-1],"normalized":false,"type":"VEC4"},{"bufferView":42,"byteOffset":0,"componentType":5126,"count":36,"max":[1,1,1],"min":[-1,-1,-1],"normalized":false,"type":"VEC3"},{"bufferView":43,"byteOffset":0,"componentType":5126,"count":36,"max":[1,1],"min":[0,0],"normalized":false,"type":"VEC2"},{"bufferView":44,"byteOffset":0,"componentType":5125,"count":36,"max":[35],"min":[0],"normalized":false,"type":"SCALAR"}],"asset":{"generator":"Godot Engine v4.1.3.stable.official@f06b6836a9ecfd0e6ec96d8bcf0fe9c9bc10dcbf","version":"2.0"},"bufferViews":[{"buffer":0,"byteLength":48,"byteOffset":0},{"buffer":0,"byteLength":64,"byteOffset":48},{"buffer":0,"byteLength":48,"byteOffset":112},{"buffer":0,"byteLength":32,"byteOffset":160},{"buffer":0,"byteLength":24,"byteOffset":192},{"buffer":0,"byteLength":456,"byteOffset":216},{"buffer":0,"byteLength":608,"byteOffset":672},{"buffer":0,"byteLength":456,"byteOffset":1280},{"buffer":0,"byteLength":304,"byteOffset":1736},{"buffer":0,"byteLength":576,"byteOffset":2040},{"buffer":0,"byteLength":456,"byteOffset":2616},{"buffer":0,"byteLength":608,"byteOffset":3072},{"buffer":0,"byteLength":456,"byteOffset":3680},{"buffer":0,"byteLength":304,"byteOffset":4136},{"buffer":0,"byteLength":576,"byteOffset":4440},{"buffer":0,"byteLength":432,"byteOffset":5016},{"buffer":0,"byteLength":576,"byteOffset":5448},{"buffer":0,"byteLength":432,"byteOffset":6024},{"buffer":0,"byteLength":288,"byteOffset":6456},{"buffer":0,"byteLength":144,"byteOffset":6744},{"buffer":0,"byteLength":432,"byteOffset":6888},{"buffer":0,"byteLength":576,"byteOffset":7320},{"buffer":0,"byteLength":432,"byteOffset":7896},{"buffer":0,"byteLength":288,"byteOffset":8328},{"buffer":0,"byteLength":144,"byteOffset":8616},{"buffer":0,"byteLength":432,"byteOffset":8760},{"buffer":0,"byteLength":576,"byteOffset":9192},{"buffer":0,"byteLength":432,"byteOffset":9768},{"buffer":0,"byteLength":288,"byteOffset":10200},{"buffer":0,"byteLength":144,"byteOffset":10488},{"buffer":0,"byteLength":432,"byteOffset":10632},{"buffer":0,"byteLength":576,"byteOffset":11064},{"buffer":0,"byteLength":432,"byteOffset":11640},{"buffer":0,"byteLength":288,"byteOffset":12072},{"buffer":0,"byteLength":144,"byteOffset":12360},{"buffer":0,"byteLength":432,"byteOffset":12504},{"buffer":0,"byteLength":576,"byteOffset":12936},{"buffer":0,"byteLength":432,"byteOffset":13512},{"buffer":0,"byteLength":288,"byteOffset":13944},{"buffer":0,"byteLength":144,"byteOffset":14232},{"buffer":0,"byteLength":432,"byteOffset":14376},{"buffer":0,"byteLength":576,"byteOffset":14808},{"buffer":0,"byteLength":432,"byteOffset":15384},{"buffer":0,"byteLength":288,"byteOffset":15816},{"buffer":0,"byteLength":144,"byteOffset":16104}],"buffers":[{"byteLength":16248,"uri":"world_marker0.bin"}],"images":[{"uri":"textures%2Fback_albedo000.png"},{"uri":"textures%2Fcenter_albedo000.png"}],"materials":[{"alphaMode":"BLEND","extensions":{},"name":"back2","pbrMetallicRoughness":{"baseColorFactor":[0.999999582767487,0.999999582767487,0.999999582767487,1],"baseColorTexture":{"index":0},"metallicFactor":0,"roughnessFactor":1}},{"alphaMode":"BLEND","extensions":{},"name":"center","pbrMetallicRoughness":{"baseColorFactor":[0.999999582767487,0.999999582767487,0.999999582767487,1],"baseColorTexture":{"index":1},"metallicFactor":0,"roughnessFactor":1}},{"extensions":{},"pbrMetallicRoughness":{"baseColorFactor":[0.99999988079071,0.99999988079071,0.99999988079071,1],"metallicFactor":0,"roughnessFactor":1}},{"extensions":{},"pbrMetallicRoughness":{"baseColorFactor":[0.99999988079071,0.99999988079071,0.99999988079071,1],"metallicFactor":0,"roughnessFactor":1}},{"extensions":{},"pbrMetallicRoughness":{"baseColorFactor":[0.99999988079071,0.99999988079071,0.99999988079071,1],"metallicFactor":0,"roughnessFactor":1}},{"extensions":{},"pbrMetallicRoughness":{"baseColorFactor":[0.99999988079071,0.99999988079071,0.99999988079071,1],"metallicFactor":0,"roughnessFactor":1}},{"extensions":{},"pbrMetallicRoughness":{"baseColorFactor":[0.99999988079071,0.99999988079071,0.99999988079071,1],"metallicFactor":0,"roughnessFactor":1}},{"extensions":{},"pbrMetallicRoughness":{"baseColorFactor":[0.99999988079071,0.99999988079071,0.99999988079071,1],"metallicFactor":0,"roughnessFactor":1}}],"meshes":[{"extras":{"targetNames":[]},"primitives":[{"attributes":{"NORMAL":2,"POSITION":0,"TANGENT":1,"TEXCOORD_0":3},"indices":4,"material":0,"mode":4}]},{"extras":{"targetNames":[]},"primitives":[{"attributes":{"NORMAL":7,"POSITION":5,"TANGENT":6,"TEXCOORD_0":8},"indices":9,"material":1,"mode":4}]},{"extras":{"targetNames":[]},"primitives":[{"attributes":{"NORMAL":12,"POSITION":10,"TANGENT":11,"TEXCOORD_0":13},"indices":14,"material":1,"mode":4}]},{"extras":{"targetNames":[]},"primitives":[{"attributes":{"NORMAL":17,"POSITION":15,"TANGENT":16,"TEXCOORD_0":18},"indices":19,"material":2,"mode":4}]},{"extras":{"targetNames":[]},"primitives":[{"attributes":{"NORMAL":22,"POSITION":20,"TANGENT":21,"TEXCOORD_0":23},"indices":24,"material":3,"mode":4}]},{"extras":{"targetNames":[]},"primitives":[{"attributes":{"NORMAL":27,"POSITION":25,"TANGENT":26,"TEXCOORD_0":28},"indices":29,"material":4,"mode":4}]},{"extras":{"targetNames":[]},"primitives":[{"attributes":{"NORMAL":32,"POSITION":30,"TANGENT":31,"TEXCOORD_0":33},"indices":34,"material":5,"mode":4}]},{"extras":{"targetNames":[]},"primitives":[{"attributes":{"NORMAL":37,"POSITION":35,"TANGENT":36,"TEXCOORD_0":38},"indices":39,"material":6,"mode":4}]},{"extras":{"targetNames":[]},"primitives":[{"attributes":{"NORMAL":42,"POSITION":40,"TANGENT":41,"TEXCOORD_0":43},"indices":44,"material":7,"mode":4}]}],"nodes":[{"children":[1,7,8,9,10,11,12],"extensions":{},"name":"level"},{"children":[2,6],"extensions":{},"name":"world","translation":[0.0889244079589844,0.43037748336792,0.119000002741814]},{"children":[3,4,5],"extensions":{},"name":"plane"},{"extensions":{},"mesh":0,"name":"back","translation":[0,0,-4]},{"extensions":{},"mesh":1,"name":"center_back"},{"extensions":{},"mesh":2,"name":"center_front"},{"extensions":{},"name":"WorldEnvironment"},{"extensions":{},"mesh":3,"name":"CSGBox3D2","translation":[34.0386505126953,18.581958770752,-24.6446475982666]},{"extensions":{},"mesh":4,"name":"CSGBox3D23","translation":[34.0386505126953,-18.5121116638184,-24.6446475982666]},{"extensions":{},"mesh":5,"name":"CSGBox3D32","translation":[-34.3542137145996,18.581958770752,-24.6446475982666]},{"extensions":{},"mesh":6,"name":"CSGBox3D42","translation":[3.03803539276123,3.57857227325439,-2.26083946228027]},{"extensions":{},"mesh":7,"name":"CSGBox3D52","translation":[2.98522472381592,-0.30017375946045,-2.26083946228027]},{"extensions":{},"mesh":8,"name":"CSGBox3D62","translation":[-2.27949404716492,3.36332893371582,-2.26083946228027]}],"samplers":[{"magFilter":9728,"minFilter":9986,"wrapS":10497,"wrapT":10497}],"scene":0,"scenes":[{"nodes":[0]}],"textures":[{"sampler":0,"source":0},{"sampler":0,"source":1}]}